
<mxfile host="app.diagrams.net">
  <diagram name="Class Diagram" id="2">
    <mxGraphModel dx="1070" dy="647" grid="1" gridSize="10">
      <root>
        <mxCell id="0"/>
        <mxCell id="1" parent="0"/>
        <mxCell id="2" value="UserService" style="shape=umlClass;" vertex="1" parent="1">
          <mxGeometry x="40" y="30" width="200" height="100" as="geometry"/>
        </mxCell>
        <mxCell id="3" value="AuthService" style="shape=umlClass;" vertex="1" parent="1">
          <mxGeometry x="300" y="30" width="200" height="100" as="geometry"/>
        </mxCell>
        <mxCell id="4" value="IRoleService" style="shape=umlInterface;" vertex="1" parent="1">
          <mxGeometry x="550" y="30" width="200" height="100" as="geometry"/>
        </mxCell>
      </root>
    </mxGraphModel>
  </diagram>
</mxfile>
